<?xml version="1.0" encoding="UTF-8"?>
<svg xmlns="http://www.w3.org/2000/svg" width="1920" height="1080" viewBox="0 0 1920 1080" role="img" aria-label="EQUIPARTITION OF ENERGY EXPLAINED">
  <defs>
    <marker id="arrow" markerWidth="12" markerHeight="12" refX="10" refY="6" orient="auto" markerUnits="strokeWidth">
      <path d="M2,2 L10,6 L2,10 Z" fill="#0ea5e9"/>
    </marker>
    <marker id="arrowSmall" markerWidth="9" markerHeight="9" refX="8" refY="4.5" orient="auto" markerUnits="strokeWidth">
      <path d="M1.5,1.5 L8,4.5 L1.5,7.5 Z" fill="#0ea5e9"/>
    </marker>
    <filter id="shadow" x="-10%" y="-10%" width="120%" height="120%">
      <feDropShadow dx="0" dy="5" stdDeviation="5" flood-color="#0f172a" flood-opacity="0.16"/>
    </filter>
    <linearGradient id="warmSteel" x1="0" x2="1" y1="0" y2="1">
      <stop offset="0%" stop-color="#ffffff"/>
      <stop offset="55%" stop-color="#dbeafe"/>
      <stop offset="100%" stop-color="#93c5fd"/>
    </linearGradient>
    <filter id="softGlow" x="-20%" y="-20%" width="140%" height="140%">
      <feGaussianBlur stdDeviation="5" result="blur"/>
      <feMerge><feMergeNode in="blur"/><feMergeNode in="SourceGraphic"/></feMerge>
    </filter>
  </defs>
  <rect width="1920" height="1080" fill="white"/>
  <rect x="3" y="3" width="1914" height="1074" fill="none" stroke="#111827" stroke-width="3"/>
  <text x="960" y="68" text-anchor="middle" font-family="Arial Black, Impact, Arial, sans-serif" font-size="58" font-weight="950" letter-spacing="1.15" fill="#050505">EQUIPARTITION OF ENERGY EXPLAINED</text>
  <text x="960" y="109" text-anchor="middle" font-family="Arial Narrow, Arial, sans-serif" font-size="24" font-weight="950" fill="#0b3a8a">NCERT CLASS 11 PHYSICS - KINETIC THEORY</text>

  
    <g>
      <rect x="30" y="120" width="480" height="166" rx="8" fill="#ffffff" stroke="#0b3a8a" stroke-width="2.2"/>
      <circle cx="54" cy="140" r="17" fill="#e0f2fe" stroke="#111827" stroke-width="3"/><circle cx="54" cy="140" r="11" fill="#bae6fd" stroke="#ffffff" stroke-width="3"/><line x1="66" y1="153" x2="84" y2="174" stroke="#111827" stroke-width="5" stroke-linecap="round"/>
      <text x="84" y="150" font-family="Inter, Arial, sans-serif" font-size="21" font-weight="950" fill="#0b3a8a">WHAT IS EQUIPARTITION OF</text>
<text x="84" y="172" font-family="Inter, Arial, sans-serif" font-size="21" font-weight="950" fill="#0b3a8a">ENERGY?</text>
      <circle cx="54" cy="191" r="3" fill="#0b3a8a"/><text x="72" y="198" font-family="Inter, Arial, sans-serif" font-size="14" font-weight="650" fill="#0f172a">Energy is shared equally among quadratic modes at</text>
<text x="72" y="216" font-family="Inter, Arial, sans-serif" font-size="14" font-weight="650" fill="#0f172a">thermal equilibrium.</text><circle cx="54" cy="235" r="3" fill="#0b3a8a"/><text x="72" y="242" font-family="Inter, Arial, sans-serif" font-size="14" font-weight="650" fill="#0f172a">Translation, rotation, and vibration are energy modes</text><circle cx="54" cy="261" r="3" fill="#0b3a8a"/><text x="72" y="268" font-family="Inter, Arial, sans-serif" font-size="14" font-weight="650" fill="#0f172a">Vibration contributes kinetic and potential terms</text>
    </g>
  
    <g>
      <rect x="30" y="306" width="480" height="270" rx="8" fill="#ffffff" stroke="#1d4ed8" stroke-width="2.2"/>
      <text x="46" y="337" font-family="Arial Narrow, Arial, sans-serif" font-size="22" font-weight="950" fill="#0b3a8a">FORMULA INSET</text>
      <rect x="44" y="342" width="452" height="58" rx="5" fill="#fbfdff" stroke="#1d4ed8" stroke-width="1.5"/><text x="58" y="368" font-family="Inter, Arial, sans-serif" font-size="18" font-weight="850" fill="#0f172a">Each quadratic mode: 1/2 kB</text>
<text x="58" y="390" font-family="Inter, Arial, sans-serif" font-size="18" font-weight="850" fill="#0f172a">T</text><rect x="44" y="409" width="452" height="58" rx="5" fill="#fbfdff" stroke="#1d4ed8" stroke-width="1.5"/><text x="58" y="435" font-family="Inter, Arial, sans-serif" font-size="18" font-weight="850" fill="#0f172a">Monatomic U = 3/2 RT per</text>
<text x="58" y="457" font-family="Inter, Arial, sans-serif" font-size="18" font-weight="850" fill="#0f172a">mole</text><rect x="44" y="476" width="452" height="42" rx="5" fill="#fbfdff" stroke="#1d4ed8" stroke-width="1.5"/><text x="58" y="502" font-family="Inter, Arial, sans-serif" font-size="18" font-weight="850" fill="#0f172a">Cp - Cv = R</text><rect x="44" y="527" width="452" height="42" rx="5" fill="#fbfdff" stroke="#1d4ed8" stroke-width="1.5"/><text x="58" y="553" font-family="Inter, Arial, sans-serif" font-size="18" font-weight="850" fill="#0f172a">gamma = Cp/Cv</text>
    </g>
  
    <g>
      <rect x="30" y="614" width="480" height="196" rx="8" fill="#ffffff" stroke="#0ea5e9" stroke-width="2.2"/>
      
      <text x="46" y="644" font-family="Inter, Arial, sans-serif" font-size="20" font-weight="950" fill="#0ea5e9">SCHEMATIC INSET</text>
      
    </g><g><circle cx="270" cy="722" r="62" fill="#eff6ff" stroke="#0ea5e9" stroke-width="4"/><path d="M180 784 C230 657 318 657 364 784" fill="none" stroke="#0ea5e9" stroke-width="5"/><text x="270" y="730" text-anchor="middle" font-family="Arial" font-size="24" font-weight="900">MODEL</text></g>
  
    <g>
      <rect x="30" y="832" width="480" height="172" rx="8" fill="#ffffff" stroke="#0f766e" stroke-width="2.2"/>
      
      <text x="46" y="862" font-family="Inter, Arial, sans-serif" font-size="20" font-weight="950" fill="#0f766e">TEACHER-LED CHECKPOINT</text>
      <circle cx="54" cy="887" r="3" fill="#0f766e"/><text x="72" y="894" font-family="Inter, Arial, sans-serif" font-size="15" font-weight="650" fill="#0f172a">Energy is shared equally among quadratic modes at</text>
<text x="72" y="913" font-family="Inter, Arial, sans-serif" font-size="15" font-weight="650" fill="#0f172a">thermal equilibrium.</text><circle cx="54" cy="933" r="3" fill="#0f766e"/><text x="72" y="940" font-family="Inter, Arial, sans-serif" font-size="15" font-weight="650" fill="#0f172a">Ask students to label the diagram before solving.</text>
    </g>

  <text x="960" y="145" text-anchor="middle" font-family="Arial Narrow, Arial, sans-serif" font-size="25" font-weight="950" fill="#0b3a8a">MAIN DIAGRAM WITH LABELLED VARIABLES, DIRECTIONS AND ASSUMPTIONS</text>
  <g filter="url(#shadow)">
    
    <ellipse cx="960" cy="548" rx="360" ry="230" fill="#f8fbff" opacity="0.72"/>
    <path d="M552 300 C720 142 870 152 960 300 C1050 152 1200 142 1368 300" fill="none" stroke="#7dd3fc" stroke-width="4" opacity="0.48"/>
    <path d="M552 650 C720 808 870 798 960 650 C1050 798 1200 808 1368 650" fill="none" stroke="#7dd3fc" stroke-width="4" opacity="0.48"/>
    <path d="M560 232 C760 320 794 424 732 540 C680 638 765 720 900 742" fill="none" stroke="#38bdf8" stroke-width="3" opacity="0.34"/>
    <path d="M1360 232 C1160 320 1126 424 1188 540 C1240 638 1155 720 1020 742" fill="none" stroke="#38bdf8" stroke-width="3" opacity="0.34"/>
    <text x="960" y="178" text-anchor="middle" font-family="Arial Narrow, Arial, sans-serif" font-size="24" font-weight="950" fill="#475569">MAIN SCIENTIFIC DIAGRAM</text>
<g transform="translate(960 500) scale(1.08) translate(-960 -500)"><rect x="730" y="440" width="145" height="150" rx="18" fill="#dbeafe" stroke="#0ea5e9" stroke-width="5"/><rect x="890" y="440" width="145" height="150" rx="18" fill="#dcfce7" stroke="#10b981" stroke-width="5"/><rect x="1050" y="440" width="145" height="150" rx="18" fill="#fee2e2" stroke="#ef4444" stroke-width="5"/><text x="802" y="525" text-anchor="middle" font-family="Inter, Arial" font-size="25" font-weight="900">trans</text><text x="962" y="525" text-anchor="middle" font-family="Inter, Arial" font-size="25" font-weight="900">rot</text><text x="1122" y="525" text-anchor="middle" font-family="Inter, Arial" font-size="25" font-weight="900">vib</text><text x="960" y="695" text-anchor="middle" font-family="Inter, Arial" font-size="32" font-weight="950">1/2 kB T per quadratic mode</text></g>
  </g>
  <line x1="600" y1="752" x2="818" y2="684" stroke="#111827" stroke-width="2"/>
  <circle cx="818" cy="684" r="5" fill="#111827"/>
  <text x="575" y="766" text-anchor="end" font-family="Arial Narrow, Arial, sans-serif" font-size="18" font-weight="950" fill="#111827">LABELLED VARIABLES</text>
  <line x1="1320" y1="735" x2="1105" y2="650" stroke="#111827" stroke-width="2"/>
  <circle cx="1105" cy="650" r="5" fill="#111827"/>
  <text x="1328" y="746" text-anchor="end" font-family="Arial Narrow, Arial, sans-serif" font-size="18" font-weight="950" fill="#111827">MODEL CONDITIONS</text>
  <rect x="570" y="766" width="780" height="38" rx="5" fill="#ffffff" stroke="#1d4ed8" stroke-width="2"/>
  <text x="960" y="791" text-anchor="middle" font-family="Arial, sans-serif" font-size="16" font-weight="850" fill="#111827">Legend: arrows show directions; labels show variables; equations show model conditions.</text>
  
    <g>
      <rect x="520" y="824" width="285.3333333333333" height="86" rx="5" fill="#ffffff" stroke="#0ea5e9" stroke-width="1.8"/>
      <text x="662.6666666666666" y="848" text-anchor="middle" font-family="Arial Narrow, Arial, sans-serif" font-size="17" font-weight="900" fill="#0ea5e9">KEY EQUATION</text>
      <text x="538" y="878" font-family="Inter, Arial, sans-serif" font-size="18" font-weight="900" fill="#0f172a">Each quadratic mode: 1/2</text>
<text x="538" y="900" font-family="Inter, Arial, sans-serif" font-size="18" font-weight="900" fill="#0f172a">kB T</text>
    </g>
    <g>
      <rect x="817.3333333333333" y="824" width="285.3333333333333" height="86" rx="5" fill="#ffffff" stroke="#0f172a" stroke-width="1.8"/>
      <text x="959.9999999999999" y="848" text-anchor="middle" font-family="Arial Narrow, Arial, sans-serif" font-size="17" font-weight="900" fill="#0f172a">INSET 2</text>
      <text x="835.3333333333333" y="878" font-family="Inter, Arial, sans-serif" font-size="18" font-weight="900" fill="#0f172a">Monatomic U = 3/2 RT per</text>
<text x="835.3333333333333" y="900" font-family="Inter, Arial, sans-serif" font-size="18" font-weight="900" fill="#0f172a">mole</text>
    </g>
    <g>
      <rect x="1114.6666666666665" y="824" width="285.3333333333333" height="86" rx="5" fill="#ffffff" stroke="#0f172a" stroke-width="1.8"/>
      <text x="1257.3333333333333" y="848" text-anchor="middle" font-family="Arial Narrow, Arial, sans-serif" font-size="17" font-weight="900" fill="#0f172a">INSET 3</text>
      <text x="1132.6666666666665" y="878" font-family="Inter, Arial, sans-serif" font-size="18" font-weight="900" fill="#0f172a">Cp - Cv = R</text>
    </g>
  
    <g>
      <rect x="520" y="924" width="880" height="118" rx="8" fill="#ffffff" stroke="#1d4ed8" stroke-width="2.2"/>
      
      <text x="536" y="954" font-family="Inter, Arial, sans-serif" font-size="19" font-weight="950" fill="#1d4ed8">INTERPRETATION INSET</text>
      <circle cx="544" cy="979" r="3" fill="#1d4ed8"/><text x="562" y="986" font-family="Inter, Arial, sans-serif" font-size="13" font-weight="650" fill="#0f172a">Specific heats depend on active degrees of freedom</text><circle cx="544" cy="1002" r="3" fill="#1d4ed8"/><text x="562" y="1009" font-family="Inter, Arial, sans-serif" font-size="13" font-weight="650" fill="#0f172a">Use with: Monatomic U = 3/2 RT per mole</text><circle cx="544" cy="1025" r="3" fill="#1d4ed8"/><text x="562" y="1032" font-family="Inter, Arial, sans-serif" font-size="13" font-weight="650" fill="#0f172a">Typical use: Specific heats</text>
    </g>

  
    <g>
      <rect x="1410" y="120" width="480" height="198" rx="8" fill="#ffffff" stroke="#0b3a8a" stroke-width="2.2"/>
      
      <text x="1426" y="150" font-family="Inter, Arial, sans-serif" font-size="20" font-weight="950" fill="#0b3a8a">NCERT CHECKPOINTS</text>
      <circle cx="1434" cy="175" r="3" fill="#0b3a8a"/><text x="1452" y="182" font-family="Inter, Arial, sans-serif" font-size="14" font-weight="650" fill="#0f172a">Translation, rotation, and vibration are energy modes</text><circle cx="1434" cy="201" r="3" fill="#0b3a8a"/><text x="1452" y="208" font-family="Inter, Arial, sans-serif" font-size="14" font-weight="650" fill="#0f172a">Vibration contributes kinetic and potential terms</text><circle cx="1434" cy="227" r="3" fill="#0b3a8a"/><text x="1452" y="234" font-family="Inter, Arial, sans-serif" font-size="14" font-weight="650" fill="#0f172a">Specific heats depend on active degrees of freedom</text><circle cx="1434" cy="253" r="3" fill="#0b3a8a"/><text x="1452" y="260" font-family="Inter, Arial, sans-serif" font-size="14" font-weight="650" fill="#0f172a">NCERT chapter: Kinetic Theory</text>
    </g>
  
    <g>
      <rect x="1410" y="342" width="480" height="170" rx="8" fill="#ffffff" stroke="#1d4ed8" stroke-width="2.2"/>
      
      <text x="1426" y="372" font-family="Inter, Arial, sans-serif" font-size="20" font-weight="950" fill="#1d4ed8">PROCESS / CAUSE-EFFECT FLOW</text>
      <circle cx="1434" cy="397" r="3" fill="#1d4ed8"/><text x="1452" y="404" font-family="Inter, Arial, sans-serif" font-size="14" font-weight="650" fill="#0f172a">Start from Each quadratic mode: 1/2 kB T</text><circle cx="1434" cy="423" r="3" fill="#1d4ed8"/><text x="1452" y="430" font-family="Inter, Arial, sans-serif" font-size="14" font-weight="650" fill="#0f172a">Translation, rotation, and vibration are energy modes</text><circle cx="1434" cy="449" r="3" fill="#1d4ed8"/><text x="1452" y="456" font-family="Inter, Arial, sans-serif" font-size="14" font-weight="650" fill="#0f172a">Avoid: All gases do not have the same Cv</text>
    </g>
  
    <g>
      <rect x="1410" y="536" width="236" height="286" rx="8" fill="#ffffff" stroke="#dc2626" stroke-width="2.2"/>
      
      <text x="1426" y="566" font-family="Inter, Arial, sans-serif" font-size="19" font-weight="950" fill="#dc2626">COMMON</text>
<text x="1426" y="586" font-family="Inter, Arial, sans-serif" font-size="19" font-weight="950" fill="#dc2626">MISCONCEPTIONS</text>
      <circle cx="1434" cy="607" r="3" fill="#dc2626"/><text x="1452" y="614" font-family="Inter, Arial, sans-serif" font-size="14" font-weight="650" fill="#0f172a">All gases do not have</text>
<text x="1452" y="632" font-family="Inter, Arial, sans-serif" font-size="14" font-weight="650" fill="#0f172a">the same Cv</text><circle cx="1434" cy="651" r="3" fill="#dc2626"/><text x="1452" y="658" font-family="Inter, Arial, sans-serif" font-size="14" font-weight="650" fill="#0f172a">Vibrational modes may</text>
<text x="1452" y="676" font-family="Inter, Arial, sans-serif" font-size="14" font-weight="650" fill="#0f172a">be inactive at ordinary</text>
<text x="1452" y="694" font-family="Inter, Arial, sans-serif" font-size="14" font-weight="650" fill="#0f172a">temperature</text><circle cx="1434" cy="713" r="3" fill="#dc2626"/><text x="1452" y="720" font-family="Inter, Arial, sans-serif" font-size="14" font-weight="650" fill="#0f172a">Equipartition is a</text>
<text x="1452" y="738" font-family="Inter, Arial, sans-serif" font-size="14" font-weight="650" fill="#0f172a">thermal equilibrium</text>
<text x="1452" y="756" font-family="Inter, Arial, sans-serif" font-size="14" font-weight="650" fill="#0f172a">result</text>
    </g>
  
    <g>
      <rect x="1660" y="536" width="230" height="286" rx="8" fill="#ffffff" stroke="#15803d" stroke-width="2.2"/>
      <text x="1676" y="567" font-family="Inter, Arial, sans-serif" font-size="20" font-weight="950" fill="#15803d">REAL-WORLD</text>
<text x="1676" y="588" font-family="Inter, Arial, sans-serif" font-size="20" font-weight="950" fill="#15803d">APPLICATIONS</text>
      <circle cx="1688" cy="617" r="16" fill="#10b981" opacity="0.18" stroke="#10b981" stroke-width="2"/><path d="M1680 622 L1688 608 L1696 622 Z" fill="#10b981"/><text x="1715" y="622" font-family="Inter, Arial, sans-serif" font-size="15" font-weight="700" fill="#0f172a">Specific heats</text><circle cx="1688" cy="653" r="16" fill="#0ea5e9" opacity="0.18" stroke="#0ea5e9" stroke-width="2"/><path d="M1680 658 L1688 644 L1696 658 Z" fill="#0ea5e9"/><text x="1715" y="658" font-family="Inter, Arial, sans-serif" font-size="15" font-weight="700" fill="#0f172a">Molecular gases</text><circle cx="1688" cy="689" r="16" fill="#f59e0b" opacity="0.18" stroke="#f59e0b" stroke-width="2"/><path d="M1680 694 L1688 680 L1696 694 Z" fill="#f59e0b"/><text x="1715" y="694" font-family="Inter, Arial, sans-serif" font-size="15" font-weight="700" fill="#0f172a">Thermal modelling</text>
    </g>
</svg>
